<svg width="20" height="20" viewBox="0 0 20 20" fill="none" xmlns="http://www.w3.org/2000/svg">
<g clip-path="url(#clip0_1_2)">
<path d="M12.5 3.81833V9.99999C12.4997 10.5306 12.3306 11.0474 12.0171 11.4756C11.7037 11.9037 11.2621 12.221 10.7563 12.3815C10.2506 12.5421 9.70683 12.5375 9.20382 12.3685C8.70082 12.1995 8.26463 11.8749 7.95838 11.4415C7.65213 11.0082 7.49171 10.4886 7.50033 9.95807C7.50895 9.42751 7.68616 8.91345 8.00633 8.49028C8.32649 8.06712 8.773 7.7568 9.28123 7.60424C9.78945 7.45168 10.333 7.46478 10.8333 7.64166V1.70833C15.0442 2.12583 18.3333 5.67916 18.3333 9.99999C18.3333 14.6025 14.6025 18.3333 10 18.3333C5.3975 18.3333 1.66667 14.6025 1.66667 9.99999C1.66667 5.67916 4.95583 2.12583 9.16667 1.70833V3.38499C7.48559 3.5989 5.94904 4.44488 4.86932 5.75101C3.7896 7.05714 3.24773 8.72538 3.35385 10.4167C3.45997 12.108 4.20611 13.6954 5.44062 14.8563C6.67513 16.0173 8.30537 16.6646 10 16.6667C11.5478 16.6675 13.0476 16.1298 14.2423 15.1457C15.437 14.1617 16.252 12.7926 16.5477 11.2733C16.8433 9.75401 16.601 8.1792 15.8625 6.81898C15.124 5.45875 13.9352 4.39788 12.5 3.81833V3.81833Z" fill="white"/>
</g>
<defs>
<clipPath id="clip0_1_2">
<rect width="20" height="20" fill="white"/>
</clipPath>
</defs>
</svg>
