<svg width="20" height="20" viewBox="0 0 20 20" fill="none" xmlns="http://www.w3.org/2000/svg">
<g clip-path="url(#clip0_4_26)">
<path d="M3.33333 4.16667V15.8333H16.6667V4.16667H3.33333ZM2.5 2.5H17.5C17.721 2.5 17.933 2.5878 18.0893 2.74408C18.2455 2.90036 18.3333 3.11232 18.3333 3.33333V16.6667C18.3333 16.8877 18.2455 17.0996 18.0893 17.2559C17.933 17.4122 17.721 17.5 17.5 17.5H2.5C2.27899 17.5 2.06702 17.4122 1.91074 17.2559C1.75446 17.0996 1.66667 16.8877 1.66667 16.6667V3.33333C1.66667 3.11232 1.75446 2.90036 1.91074 2.74408C2.06702 2.5878 2.27899 2.5 2.5 2.5V2.5ZM6.25 9.375H7.91667V7.5H9.16667V12.5H7.91667V10.625H6.25V12.5H5V7.5H6.25V9.375ZM12.0833 8.75V11.25H13.3333C13.4438 11.25 13.5498 11.2061 13.628 11.128C13.7061 11.0498 13.75 10.9438 13.75 10.8333V9.16667C13.75 9.05616 13.7061 8.95018 13.628 8.87204C13.5498 8.7939 13.4438 8.75 13.3333 8.75H12.0833ZM10.8333 7.5H13.3333C13.7754 7.5 14.1993 7.67559 14.5118 7.98816C14.8244 8.30072 15 8.72464 15 9.16667V10.8333C15 11.2754 14.8244 11.6993 14.5118 12.0118C14.1993 12.3244 13.7754 12.5 13.3333 12.5H10.8333V7.5Z" fill="white"/>
</g>
<defs>
<clipPath id="clip0_4_26">
<rect width="20" height="20" fill="white"/>
</clipPath>
</defs>
</svg>
