<svg width="20" height="20" viewBox="0 0 20 20" fill="none" xmlns="http://www.w3.org/2000/svg">
<g clip-path="url(#clip0_1_38)">
<path d="M15.8333 17.5H4.16666C3.94565 17.5 3.73369 17.4122 3.57741 17.2559C3.42113 17.0996 3.33333 16.8877 3.33333 16.6667V9.16667H0.833328L9.43916 1.34334C9.59259 1.20374 9.79256 1.12637 10 1.12637C10.2074 1.12637 10.4074 1.20374 10.5608 1.34334L19.1667 9.16667H16.6667V16.6667C16.6667 16.8877 16.5789 17.0996 16.4226 17.2559C16.2663 17.4122 16.0543 17.5 15.8333 17.5ZM5 15.8333H15V7.63084L10 3.08584L5 7.63084V15.8333Z" fill="white"/>
</g>
<defs>
<clipPath id="clip0_1_38">
<rect width="20" height="20" fill="white"/>
</clipPath>
</defs>
</svg>
