<svg width="20" height="20" viewBox="0 0 20 20" fill="none" xmlns="http://www.w3.org/2000/svg">
<g clip-path="url(#clip0_2_22)">
<path d="M12.5 5.83333C12.5 5.61232 12.5878 5.40036 12.7441 5.24408C12.9004 5.0878 13.1123 5 13.3333 5C13.5543 5 13.7663 5.0878 13.9226 5.24408C14.0789 5.40036 14.1667 5.61232 14.1667 5.83333V14.1667C14.1667 14.3877 14.0789 14.5996 13.9226 14.7559C13.7663 14.9122 13.5543 15 13.3333 15C13.1123 15 12.9004 14.9122 12.7441 14.7559C12.5878 14.5996 12.5 14.3877 12.5 14.1667V5.83333ZM5.83333 5.83333C5.83333 5.61232 5.92113 5.40036 6.07741 5.24408C6.23369 5.0878 6.44565 5 6.66667 5C6.88768 5 7.09964 5.0878 7.25592 5.24408C7.4122 5.40036 7.5 5.61232 7.5 5.83333V14.1667C7.5 14.3877 7.4122 14.5996 7.25592 14.7559C7.09964 14.9122 6.88768 15 6.66667 15C6.44565 15 6.23369 14.9122 6.07741 14.7559C5.92113 14.5996 5.83333 14.3877 5.83333 14.1667V5.83333Z" fill="white"/>
</g>
<defs>
<clipPath id="clip0_2_22">
<rect width="20" height="20" fill="white"/>
</clipPath>
</defs>
</svg>
