<svg width="20" height="20" viewBox="0 0 20 20" fill="none" xmlns="http://www.w3.org/2000/svg">
<g clip-path="url(#clip0_4_66)">
<path d="M13.3333 10.5558L4.81417 16.235C4.75142 16.2768 4.67853 16.3007 4.60324 16.3043C4.52796 16.3079 4.45311 16.291 4.38667 16.2554C4.32022 16.2199 4.26467 16.1669 4.22593 16.1023C4.18719 16.0376 4.16671 15.9637 4.16667 15.8883V4.11167C4.16671 4.0363 4.18719 3.96235 4.22593 3.8977C4.26467 3.83305 4.32022 3.78012 4.38667 3.74455C4.45311 3.70898 4.52796 3.69209 4.60324 3.69569C4.67853 3.69929 4.75142 3.72325 4.81417 3.765L13.3333 9.44417V4.16667C13.3333 3.94565 13.4211 3.73369 13.5774 3.57741C13.7337 3.42113 13.9457 3.33333 14.1667 3.33333C14.3877 3.33333 14.5996 3.42113 14.7559 3.57741C14.9122 3.73369 15 3.94565 15 4.16667V15.8333C15 16.0543 14.9122 16.2663 14.7559 16.4226C14.5996 16.5789 14.3877 16.6667 14.1667 16.6667C13.9457 16.6667 13.7337 16.5789 13.5774 16.4226C13.4211 16.2663 13.3333 16.0543 13.3333 15.8333V10.5558ZM5.83333 6.4475V13.5525L11.1617 10L5.83333 6.4475Z" fill="white"/>
</g>
<defs>
<clipPath id="clip0_4_66">
<rect width="20" height="20" fill="white"/>
</clipPath>
</defs>
</svg>
