<svg width="20" height="20" viewBox="0 0 20 20" fill="none" xmlns="http://www.w3.org/2000/svg">
<g clip-path="url(#clip0_4_42)">
<path d="M6.66667 9.44417L15.1858 3.765C15.2486 3.72325 15.3215 3.69929 15.3968 3.69569C15.472 3.69209 15.5469 3.70898 15.6133 3.74455C15.6798 3.78012 15.7353 3.83305 15.7741 3.8977C15.8128 3.96235 15.8333 4.0363 15.8333 4.11167V15.8883C15.8333 15.9637 15.8128 16.0376 15.7741 16.1023C15.7353 16.1669 15.6798 16.2199 15.6133 16.2554C15.5469 16.291 15.472 16.3079 15.3968 16.3043C15.3215 16.3007 15.2486 16.2768 15.1858 16.235L6.66667 10.5558V15.8333C6.66667 16.0543 6.57887 16.2663 6.42259 16.4226C6.26631 16.5789 6.05435 16.6667 5.83333 16.6667C5.61232 16.6667 5.40036 16.5789 5.24408 16.4226C5.0878 16.2663 5 16.0543 5 15.8333V4.16667C5 3.94565 5.0878 3.73369 5.24408 3.57741C5.40036 3.42113 5.61232 3.33333 5.83333 3.33333C6.05435 3.33333 6.26631 3.42113 6.42259 3.57741C6.57887 3.73369 6.66667 3.94565 6.66667 4.16667V9.44417ZM14.1667 13.5525V6.4475L8.83833 10L14.1667 13.5525V13.5525Z" fill="white"/>
</g>
<defs>
<clipPath id="clip0_4_42">
<rect width="20" height="20" fill="white"/>
</clipPath>
</defs>
</svg>
