<svg width="20" height="20" viewBox="0 0 20 20" fill="none" xmlns="http://www.w3.org/2000/svg">
<g clip-path="url(#clip0_4_74)">
<path d="M8.33333 6.01667L5.5025 8.33333H2.5V11.6667H5.5025L8.33333 13.9833V6.01667ZM4.9075 13.3333H1.66667C1.44565 13.3333 1.23369 13.2455 1.07741 13.0893C0.92113 12.933 0.833333 12.721 0.833333 12.5V7.5C0.833333 7.27899 0.92113 7.06703 1.07741 6.91074C1.23369 6.75446 1.44565 6.66667 1.66667 6.66667H4.9075L9.31917 3.05667C9.38021 3.00662 9.45421 2.97495 9.53256 2.96533C9.6109 2.95571 9.69037 2.96854 9.7617 3.00233C9.83304 3.03612 9.89331 3.08948 9.9355 3.15619C9.97768 3.22291 10.0001 3.30023 10 3.37917V16.6208C10.0001 16.6998 9.97768 16.7771 9.9355 16.8438C9.89331 16.9105 9.83304 16.9639 9.7617 16.9977C9.69037 17.0315 9.6109 17.0443 9.53256 17.0347C9.45421 17.0251 9.38021 16.9934 9.31917 16.9433L4.90833 13.3333H4.9075ZM16.1717 16.7783L14.9917 15.5983C15.7816 14.8954 16.4136 14.0331 16.846 13.0681C17.2784 12.1031 17.5013 11.0574 17.5 10C17.501 8.88841 17.2545 7.79054 16.7782 6.78614C16.302 5.78174 15.608 4.89603 14.7467 4.19333L15.93 3.01C16.9454 3.86962 17.761 4.9404 18.32 6.14766C18.8791 7.35492 19.168 8.6696 19.1667 10C19.1667 12.6858 18.0117 15.1017 16.1717 16.7783ZM13.2192 13.8258L12.0342 12.6408C12.4387 12.3297 12.7663 11.9298 12.9916 11.4719C13.2169 11.0139 13.3338 10.5103 13.3333 10C13.3333 8.80833 12.7083 7.7625 11.7667 7.17333L12.9658 5.97417C13.597 6.43849 14.1101 7.04488 14.4635 7.74426C14.8169 8.44365 15.0007 9.2164 15 10C15 11.535 14.3083 12.9083 13.2192 13.8258Z" fill="white"/>
</g>
<defs>
<clipPath id="clip0_4_74">
<rect width="20" height="20" fill="white"/>
</clipPath>
</defs>
</svg>
