<svg width="20" height="20" viewBox="0 0 20 20" fill="none" xmlns="http://www.w3.org/2000/svg">
<g clip-path="url(#clip0_1_6)">
<path d="M10 2.49999C9.33696 2.49999 8.70108 2.76339 8.23224 3.23223C7.7634 3.70107 7.5 4.33695 7.5 5V8.33333C7.5 8.99637 7.7634 9.63225 8.23224 10.1011C8.70108 10.5699 9.33696 10.8333 10 10.8333C10.663 10.8333 11.2989 10.5699 11.7678 10.1011C12.2366 9.63225 12.5 8.99637 12.5 8.33333V5C12.5 4.33695 12.2366 3.70107 11.7678 3.23223C11.2989 2.76339 10.663 2.49999 10 2.49999ZM10 0.833328C10.5472 0.833328 11.089 0.941102 11.5945 1.1505C12.1 1.35989 12.5594 1.66681 12.9463 2.05372C13.3332 2.44063 13.6401 2.89996 13.8495 3.40548C14.0589 3.911 14.1667 4.45282 14.1667 5V8.33333C14.1667 9.4384 13.7277 10.4982 12.9463 11.2796C12.1649 12.061 11.1051 12.5 10 12.5C8.89494 12.5 7.83513 12.061 7.05373 11.2796C6.27232 10.4982 5.83334 9.4384 5.83334 8.33333V5C5.83334 3.89493 6.27232 2.83512 7.05373 2.05372C7.83513 1.27232 8.89494 0.833328 10 0.833328V0.833328ZM2.54584 9.16666H4.225C4.42691 10.554 5.12156 11.8222 6.18186 12.7394C7.24217 13.6565 8.59724 14.1613 9.99917 14.1613C11.4011 14.1613 12.7562 13.6565 13.8165 12.7394C14.8768 11.8222 15.5714 10.554 15.7733 9.16666H17.4533C17.2639 10.8573 16.5055 12.4333 15.3027 13.6363C14.0998 14.8393 12.5239 15.5978 10.8333 15.7875V19.1667H9.16667V15.7875C7.47595 15.598 5.89982 14.8395 4.69682 13.6365C3.49381 12.4335 2.73535 10.8574 2.54584 9.16666V9.16666Z" fill="white"/>
</g>
<defs>
<clipPath id="clip0_1_6">
<rect width="20" height="20" fill="white"/>
</clipPath>
</defs>
</svg>
