<svg width="20" height="20" viewBox="0 0 20 20" fill="none" xmlns="http://www.w3.org/2000/svg">
<g clip-path="url(#clip0_4_34)">
<path d="M7.5 7.06833V12.9317L12.525 10L7.5 7.06833ZM6.46 4.53333L15.2167 9.64167C15.2794 9.6784 15.3315 9.73092 15.3676 9.794C15.4038 9.85709 15.4228 9.92853 15.4228 10.0012C15.4228 10.074 15.4038 10.1454 15.3676 10.2085C15.3315 10.2716 15.2794 10.3241 15.2167 10.3608L6.46 15.4692C6.39649 15.5062 6.32431 15.5258 6.25079 15.526C6.17726 15.5261 6.105 15.5068 6.04136 15.47C5.97771 15.4331 5.92494 15.3801 5.88841 15.3163C5.85187 15.2525 5.83287 15.1802 5.83333 15.1067V4.8925C5.83331 4.81919 5.85263 4.74716 5.88935 4.68371C5.92607 4.62025 5.97888 4.5676 6.04245 4.53108C6.10602 4.49456 6.1781 4.47546 6.25141 4.47571C6.32473 4.47596 6.39668 4.49555 6.46 4.5325V4.53333Z" fill="white"/>
</g>
<defs>
<clipPath id="clip0_4_34">
<rect width="20" height="20" fill="white"/>
</clipPath>
</defs>
</svg>
