<svg width="20" height="20" viewBox="0 0 20 20" fill="none" xmlns="http://www.w3.org/2000/svg">
<g clip-path="url(#clip0_2_6)">
<path d="M1.66667 15H10V16.6667H1.66667V15ZM1.66667 9.16666H13.3333V10.8333H1.66667V9.16666ZM1.66667 3.33333H18.3333V4.99999H1.66667V3.33333ZM15.8333 12.6417V7.5H20V9.16666H17.5V15C17.4997 15.5306 17.3306 16.0474 17.0171 16.4756C16.7037 16.9037 16.2621 17.221 15.7563 17.3815C15.2506 17.5421 14.7068 17.5375 14.2038 17.3685C13.7008 17.1995 13.2646 16.8749 12.9584 16.4415C12.6521 16.0082 12.4917 15.4886 12.5003 14.9581C12.509 14.4275 12.6862 13.9134 13.0063 13.4903C13.3265 13.0671 13.773 12.7568 14.2812 12.6042C14.7895 12.4517 15.3331 12.4648 15.8333 12.6417V12.6417ZM15 15.8333C15.221 15.8333 15.433 15.7455 15.5893 15.5893C15.7455 15.433 15.8333 15.221 15.8333 15C15.8333 14.779 15.7455 14.567 15.5893 14.4107C15.433 14.2545 15.221 14.1667 15 14.1667C14.779 14.1667 14.567 14.2545 14.4107 14.4107C14.2545 14.567 14.1667 14.779 14.1667 15C14.1667 15.221 14.2545 15.433 14.4107 15.5893C14.567 15.7455 14.779 15.8333 15 15.8333Z" fill="#64748B"/>
</g>
<defs>
<clipPath id="clip0_2_6">
<rect width="20" height="20" fill="white"/>
</clipPath>
</defs>
</svg>
