<svg width="20" height="20" viewBox="0 0 20 20" fill="none" xmlns="http://www.w3.org/2000/svg">
<g clip-path="url(#clip0_4_82)">
<path d="M10.8333 6.01667L8.0025 8.33333H5V11.6667H8.0025L10.8333 13.9833V6.01667ZM7.4075 13.3333H4.16667C3.94565 13.3333 3.73369 13.2455 3.57741 13.0893C3.42113 12.933 3.33333 12.721 3.33333 12.5V7.5C3.33333 7.27899 3.42113 7.06703 3.57741 6.91074C3.73369 6.75446 3.94565 6.66667 4.16667 6.66667H7.4075L11.8192 3.05667C11.8802 3.00662 11.9542 2.97495 12.0326 2.96533C12.1109 2.95571 12.1904 2.96854 12.2617 3.00233C12.333 3.03612 12.3933 3.08948 12.4355 3.15619C12.4777 3.22291 12.5001 3.30023 12.5 3.37917V16.6208C12.5001 16.6998 12.4777 16.7771 12.4355 16.8438C12.3933 16.9105 12.333 16.9639 12.2617 16.9977C12.1904 17.0315 12.1109 17.0443 12.0326 17.0347C11.9542 17.0251 11.8802 16.9934 11.8192 16.9433L7.40833 13.3333H7.4075ZM15.7192 13.8258L14.5342 12.6408C14.9387 12.3297 15.2663 11.9298 15.4916 11.4719C15.7169 11.0139 15.8338 10.5103 15.8333 10C15.8333 8.80833 15.2083 7.7625 14.2667 7.17333L15.4658 5.97417C16.097 6.43849 16.6101 7.04488 16.9635 7.74426C17.3169 8.44365 17.5007 9.2164 17.5 10C17.5 11.535 16.8083 12.9083 15.7192 13.8258Z" fill="white"/>
</g>
<defs>
<clipPath id="clip0_4_82">
<rect width="20" height="20" fill="white"/>
</clipPath>
</defs>
</svg>
